<?xml version="1.0" standalone="no"?>
<!DOCTYPE svg PUBLIC "-//W3C//DTD SVG 20010904//EN"
 "http://www.w3.org/TR/2001/REC-SVG-20010904/DTD/svg10.dtd">
<svg version="1.0" xmlns="http://www.w3.org/2000/svg"
 width="512.000000pt" height="512.000000pt" viewBox="0 0 512.000000 512.000000"
 preserveAspectRatio="xMidYMid meet">
<metadata>
Created by potrace 1.14, written by Peter Selinger 2001-2017
</metadata>
<g transform="translate(0.000000,512.000000) scale(0.100000,-0.100000)"
fill="#000000" stroke="none">
<path d="M3840 4840 l0 -40 -40 0 -40 0 0 -40 0 -40 -40 0 -40 0 0 -40 0 -40
-920 0 -920 0 0 -40 0 -40 -120 0 -120 0 0 -40 0 -40 -80 0 -80 0 0 -40 0 -40
-80 0 -80 0 0 -40 0 -40 -40 0 -40 0 0 -40 0 -40 -40 0 -40 0 0 -40 0 -40 -40
0 -40 0 0 -40 0 -40 -40 0 -40 0 0 -40 0 -40 -40 0 -40 0 0 -40 0 -40 40 0 40
0 0 -40 0 -40 40 0 40 0 0 -40 0 -40 -40 0 -40 0 0 -40 0 -40 -40 0 -40 0 0
-80 0 -80 -40 0 -40 0 0 -80 0 -80 -40 0 -40 0 0 -80 0 -80 -40 0 -40 0 0 -80
0 -80 -40 0 -40 0 0 -120 0 -120 -40 0 -40 0 0 -120 0 -120 -40 0 -40 0 0
-760 0 -760 40 0 40 0 0 -120 0 -120 40 0 40 0 0 -80 0 -80 40 0 40 0 0 -40 0
-40 40 0 40 0 0 -40 0 -40 40 0 40 0 0 -40 0 -40 40 0 40 0 0 -40 0 -40 40 0
40 0 0 -40 0 -40 80 0 80 0 0 -40 0 -40 480 0 480 0 0 40 0 40 120 0 120 0 0
40 0 40 80 0 80 0 0 40 0 40 80 0 80 0 0 40 0 40 80 0 80 0 0 40 0 40 80 0 80
0 0 40 0 40 80 0 80 0 0 40 0 40 80 0 80 0 0 40 0 40 80 0 80 0 0 40 0 40 40
0 40 0 0 40 0 40 40 0 40 0 0 40 0 40 40 0 40 0 0 40 0 40 40 0 40 0 0 40 0
40 40 0 40 0 0 40 0 40 40 0 40 0 0 40 0 40 40 0 40 0 0 40 0 40 40 0 40 0 0
40 0 40 40 0 40 0 0 80 0 80 40 0 40 0 0 80 0 80 40 0 40 0 0 80 0 80 40 0 40
0 0 -40 0 -40 40 0 40 0 0 -40 0 -40 40 0 40 0 0 40 0 40 40 0 40 0 0 400 0
400 -40 0 -40 0 0 120 0 120 -40 0 -40 0 0 80 0 80 -40 0 -40 0 0 80 0 80 -40
0 -40 0 0 80 0 80 -40 0 -40 0 0 80 0 80 -40 0 -40 0 0 80 0 80 -40 0 -40 0 0
80 0 80 -40 0 -40 0 0 280 0 280 40 0 40 0 0 160 0 160 -40 0 -40 0 0 40 0 40
-80 0 -80 0 0 -40z m160 -200 l0 -160 -40 0 -40 0 0 -240 0 -240 -80 0 -80 0
0 -40 0 -40 120 0 120 0 0 -80 0 -80 40 0 40 0 0 -80 0 -80 40 0 40 0 0 -80 0
-80 40 0 40 0 0 -80 0 -80 40 0 40 0 0 -80 0 -80 40 0 40 0 0 -80 0 -80 40 0
40 0 0 -120 0 -120 40 0 40 0 0 -400 0 -400 -40 0 -40 0 0 40 0 40 -40 0 -40
0 0 40 0 40 -40 0 -40 0 0 40 0 40 -40 0 -40 0 0 80 0 80 -40 0 -40 0 0 40 0
40 -40 0 -40 0 0 40 0 40 -40 0 -40 0 0 40 0 40 -40 0 -40 0 0 80 0 80 -40 0
-40 0 0 80 0 80 -40 0 -40 0 0 80 0 80 -40 0 -40 0 0 40 0 40 -40 0 -40 0 0
-40 0 -40 -40 0 -40 0 0 -80 0 -80 -40 0 -40 0 0 -40 0 -40 -40 0 -40 0 0 -40
0 -40 -40 0 -40 0 0 -40 0 -40 -40 0 -40 0 0 40 0 40 -40 0 -40 0 0 120 0 120
-40 0 -40 0 0 80 0 80 -40 0 -40 0 0 80 0 80 -40 0 -40 0 0 80 0 80 -40 0 -40
0 0 80 0 80 -40 0 -40 0 0 40 0 40 -40 0 -40 0 0 -40 0 -40 -40 0 -40 0 0 -40
0 -40 -40 0 -40 0 0 -40 0 -40 -40 0 -40 0 0 -40 0 -40 -40 0 -40 0 0 -40 0
-40 -80 0 -80 0 0 -40 0 -40 -80 0 -80 0 0 320 0 320 -40 0 -40 0 0 40 0 40
-480 0 -480 0 0 40 0 40 40 0 40 0 0 40 0 40 40 0 40 0 0 40 0 40 40 0 40 0 0
40 0 40 40 0 40 0 0 40 0 40 80 0 80 0 0 40 0 40 80 0 80 0 0 40 0 40 120 0
120 0 0 40 0 40 680 0 680 0 0 -40 0 -40 40 0 40 0 0 40 0 40 200 0 200 0 0
40 0 40 40 0 40 0 0 40 0 40 40 0 40 0 0 40 0 40 80 0 80 0 0 -160z m-2560
-1320 l0 -40 -40 0 -40 0 0 40 0 40 40 0 40 0 0 -40z m80 -240 l0 -120 -40 0
-40 0 0 -80 0 -80 -40 0 -40 0 0 -80 0 -80 -40 0 -40 0 0 -40 0 -40 -40 0 -40
0 0 -40 0 -40 -80 0 -80 0 0 160 0 160 -40 0 -40 0 0 40 0 40 40 0 40 0 0 -40
0 -40 40 0 40 0 0 80 0 80 40 0 40 0 0 80 0 80 40 0 40 0 0 40 0 40 120 0 120
0 0 -120z m560 -240 l0 -40 -40 0 -40 0 0 40 0 40 40 0 40 0 0 -40z m720 -80
l0 -40 -40 0 -40 0 0 40 0 40 40 0 40 0 0 -40z m-480 -400 l0 -40 -40 0 -40 0
0 40 0 40 40 0 40 0 0 -40z m1120 -80 l0 -40 -40 0 -40 0 0 40 0 40 40 0 40 0
0 -40z m-1760 -240 l0 -40 -40 0 -40 0 0 40 0 40 40 0 40 0 0 -40z m1280 0 l0
-40 -40 0 -40 0 0 40 0 40 40 0 40 0 0 -40z m-2000 -80 l0 -40 -40 0 -40 0 0
40 0 40 40 0 40 0 0 -40z m2880 0 l0 -40 -40 0 -40 0 0 40 0 40 40 0 40 0 0
-40z m-1680 -320 l0 -40 -40 0 -40 0 0 40 0 40 40 0 40 0 0 -40z m-880 -80 l0
-40 -40 0 -40 0 0 40 0 40 40 0 40 0 0 -40z m1440 0 l0 -40 -40 0 -40 0 0 40
0 40 40 0 40 0 0 -40z m560 0 l0 -40 -40 0 -40 0 0 40 0 40 40 0 40 0 0 -40z
m400 -160 l0 -40 -40 0 -40 0 0 40 0 40 40 0 40 0 0 -40z m-2880 -160 l0 -40
-40 0 -40 0 0 40 0 40 40 0 40 0 0 -40z m960 -80 l0 -40 -40 0 -40 0 0 40 0
40 40 0 40 0 0 -40z m1280 -80 l0 -40 -40 0 -40 0 0 40 0 40 40 0 40 0 0 -40z
m-560 -160 l0 -40 -40 0 -40 0 0 40 0 40 40 0 40 0 0 -40z m-1440 -240 l0 -40
-40 0 -40 0 0 40 0 40 40 0 40 0 0 -40z m960 0 l0 -40 -40 0 -40 0 0 40 0 40
40 0 40 0 0 -40z m-480 -240 l0 -40 -40 0 -40 0 0 40 0 40 40 0 40 0 0 -40z"/>
<path d="M3280 4440 l0 -40 40 0 40 0 0 40 0 40 -40 0 -40 0 0 -40z"/>
<path d="M3440 4280 l0 -40 40 0 40 0 0 -40 0 -40 40 0 40 0 0 -40 0 -40 40 0
40 0 0 -40 0 -40 40 0 40 0 0 40 0 40 -40 0 -40 0 0 40 0 40 -40 0 -40 0 0 40
0 40 -40 0 -40 0 0 40 0 40 -40 0 -40 0 0 -40z"/>
</g>
</svg>
